<?xml version="1.0" encoding="UTF-8" standalone="no"?>
<?xml-stylesheet href="styles.css" type="text/css"?>
<!DOCTYPE svg PUBLIC "-//W3C//DTD SVG 1.1//EN"
 "http://www.w3.org/Graphics/SVG/1.1/DTD/svg11.dtd">
<!-- Generated by graphviz version 2.30.1 (20180420.1509)
 -->
<!-- Title: Multiplier Pages: 1 -->
<svg width="496pt" height="153pt"
 viewBox="0.00 0.00 496.00 153.00" xmlns="http://www.w3.org/2000/svg" xmlns:xlink="http://www.w3.org/1999/xlink">
<g id="graph0" class="graph" transform="scale(1 1) rotate(0) translate(4 149)">
<title>Multiplier</title>
<polygon fill="white" stroke="white" points="-4,5 -4,-149 493,-149 493,5 -4,5"/>
<g id="clust1" class="cluster"><title>cluster_Multiplier</title>
<polygon fill="#fff8dc" stroke="black" points="8,-8 8,-137 480,-137 480,-8 8,-8"/>
<text text-anchor="middle" x="244" y="-121.8" font-family="Times,serif" font-size="14.00">Multiplier</text>
</g>
<!-- cluster_Multiplier_io_input_a -->
<g id="node1" class="node"><title>cluster_Multiplier_io_input_a</title>
<polygon fill="#cccccc" stroke="black" points="91,-106 17,-106 17,-70 91,-70 91,-106"/>
<text text-anchor="middle" x="54" y="-84.3" font-family="Times,serif" font-size="14.00">io_input_a</text>
</g>
<!-- op_mul_2 -->
<g id="node5" class="node"><title>op_mul_2</title>
<polygon fill="#d8bfd8" stroke="none" points="136.5,-42.5 136.5,-91.5 215.5,-91.5 215.5,-42.5 136.5,-42.5"/>
<polygon fill="none" stroke="black" points="137,-66 137,-91 157,-91 157,-66 137,-66"/>
<text text-anchor="start" x="142.5" y="-75.3" font-family="Times,serif" font-size="14.00">●</text>
<polygon fill="none" stroke="black" points="157,-42 157,-91 197,-91 197,-42 157,-42"/>
<text text-anchor="start" x="162" y="-63.3" font-family="Times,serif" font-size="14.00"> mul </text>
<polygon fill="none" stroke="black" points="197,-42 197,-91 216,-91 216,-42 197,-42"/>
<text text-anchor="start" x="202" y="-63.3" font-family="Times,serif" font-size="14.00">●</text>
<polygon fill="none" stroke="black" points="137,-42 137,-66 157,-66 157,-42 137,-42"/>
<text text-anchor="start" x="142.5" y="-50.8" font-family="Times,serif" font-size="14.00">●</text>
</g>
<!-- cluster_Multiplier_io_input_a&#45;&gt;op_mul_2 -->
<g id="edge3" class="edge"><title>cluster_Multiplier_io_input_a&#45;&gt;op_mul_2:in1</title>
<path fill="none" stroke="black" d="M91.1943,-82.2492C101.994,-80.885 114.088,-79.6873 125.823,-79.2147"/>
<polygon fill="black" stroke="black" points="126.076,-82.7102 136,-79 125.928,-75.7118 126.076,-82.7102"/>
</g>
<!-- cluster_Multiplier_io_input_b -->
<g id="node2" class="node"><title>cluster_Multiplier_io_input_b</title>
<polygon fill="#cccccc" stroke="black" points="91.5,-52 16.5,-52 16.5,-16 91.5,-16 91.5,-52"/>
<text text-anchor="middle" x="54" y="-30.3" font-family="Times,serif" font-size="14.00">io_input_b</text>
</g>
<!-- cluster_Multiplier_io_input_b&#45;&gt;op_mul_2 -->
<g id="edge2" class="edge"><title>cluster_Multiplier_io_input_b&#45;&gt;op_mul_2:in2</title>
<path fill="none" stroke="black" d="M91.6304,-47.005C102.254,-49.9595 114.148,-52.5282 125.828,-53.5405"/>
<polygon fill="black" stroke="black" points="125.852,-57.0451 136,-54 126.168,-50.0522 125.852,-57.0451"/>
</g>
<!-- cluster_Multiplier_io_out -->
<g id="node3" class="node"><title>cluster_Multiplier_io_out</title>
<polygon fill="#e0ffff" stroke="black" points="472,-71 418,-71 418,-35 472,-35 472,-71"/>
<text text-anchor="middle" x="445" y="-49.3" font-family="Times,serif" font-size="14.00">io_out</text>
</g>
<!-- op_bits_1 -->
<g id="node4" class="node"><title>op_bits_1</title>
<polygon fill="#d8bfd8" stroke="none" points="268.5,-29.5 268.5,-78.5 373.5,-78.5 373.5,-29.5 268.5,-29.5"/>
<polygon fill="none" stroke="black" points="269,-53 269,-78 317,-78 317,-53 269,-53"/>
<text text-anchor="start" x="288.5" y="-62.3" font-family="Times,serif" font-size="14.00">●</text>
<polygon fill="none" stroke="black" points="317,-29 317,-78 355,-78 355,-29 317,-29"/>
<text text-anchor="start" x="322" y="-50.3" font-family="Times,serif" font-size="14.00"> bits </text>
<polygon fill="none" stroke="black" points="355,-29 355,-78 374,-78 374,-29 355,-29"/>
<text text-anchor="start" x="360" y="-50.3" font-family="Times,serif" font-size="14.00">●</text>
<polygon fill="none" stroke="black" points="269,-29 269,-53 317,-53 317,-29 269,-29"/>
<text text-anchor="start" x="274.5" y="-37.8" font-family="Times,serif" font-size="14.00">(31, 0)</text>
</g>
<!-- op_bits_1&#45;&gt;cluster_Multiplier_io_out -->
<g id="edge4" class="edge"><title>op_bits_1:out&#45;&gt;cluster_Multiplier_io_out</title>
<path fill="none" stroke="black" d="M375,-53C385.602,-53 397.119,-53 407.653,-53"/>
<polygon fill="black" stroke="black" points="407.788,-56.5001 417.788,-53 407.788,-49.5001 407.788,-56.5001"/>
</g>
<!-- op_mul_2&#45;&gt;op_bits_1 -->
<g id="edge1" class="edge"><title>op_mul_2:out&#45;&gt;op_bits_1:in1</title>
<path fill="none" stroke="black" d="M217,-66C235.771,-66 242.883,-66 257.646,-66"/>
<polygon fill="black" stroke="black" points="258,-69.5001 268,-66 258,-62.5001 258,-69.5001"/>
</g>
</g>
</svg>
