<?xml version="1.0" encoding="UTF-8" standalone="no"?>
<?xml-stylesheet href="styles.css" type="text/css"?>
<!DOCTYPE svg PUBLIC "-//W3C//DTD SVG 1.1//EN"
 "http://www.w3.org/Graphics/SVG/1.1/DTD/svg11.dtd">
<!-- Generated by graphviz version 2.30.1 (20180420.1509)
 -->
<!-- Title: TopModule Pages: 1 -->
<svg width="542pt" height="268pt"
 viewBox="0.00 0.00 542.00 268.00" xmlns="http://www.w3.org/2000/svg" xmlns:xlink="http://www.w3.org/1999/xlink">
<g id="graph0" class="graph" transform="scale(1 1) rotate(0) translate(4 264)">
<title>TopModule</title>
<polygon fill="white" stroke="white" points="-4,5 -4,-264 539,-264 539,5 -4,5"/>
<g id="clust1" class="cluster"><title>cluster_TopModule</title>
<polygon fill="#fff8dc" stroke="black" points="8,-8 8,-252 526,-252 526,-8 8,-8"/>
<text text-anchor="middle" x="267" y="-236.8" font-family="Times,serif" font-size="14.00">TopModule</text>
</g>
<g id="clust2" class="cluster"><title>cluster_TopModule_Adder</title>
<g id="a_clust2"><a xlink:href="Adder.dot.svg" xlink:title="Adder">
<polygon fill="#add8e6" stroke="black" points="120,-28 120,-211 212,-211 212,-28 120,-28"/>
<text text-anchor="middle" x="166" y="-195.8" font-family="Times,serif" font-size="14.00">Adder</text>
</a>
</g>
</g>
<g id="clust3" class="cluster"><title>cluster_TopModule_Adder_1</title>
<g id="a_clust3"><a xlink:href="Adder.dot.svg" xlink:title="Adder_1">
<polygon fill="#add8e6" stroke="black" points="344,-16 344,-199 436,-199 436,-16 344,-16"/>
<text text-anchor="middle" x="390" y="-183.8" font-family="Times,serif" font-size="14.00">Adder_1</text>
</a>
</g>
</g>
<g id="clust4" class="cluster"><title>cluster_TopModule_Multiplier</title>
<g id="a_clust4"><a xlink:href="Multiplier.dot.svg" xlink:title="Multiplier">
<polygon fill="#add8e6" stroke="black" points="232,-38 232,-221 324,-221 324,-38 232,-38"/>
<text text-anchor="middle" x="278" y="-205.8" font-family="Times,serif" font-size="14.00">Multiplier</text>
</a>
</g>
</g>
<!-- cluster_TopModule_clock -->
<g id="node1" class="node"><title>cluster_TopModule_clock</title>
<polygon fill="#cccccc" stroke="black" points="81,-221 27,-221 27,-185 81,-185 81,-221"/>
<text text-anchor="middle" x="54" y="-199.3" font-family="Times,serif" font-size="14.00">clock</text>
</g>
<!-- cluster_TopModule_reset -->
<g id="node2" class="node"><title>cluster_TopModule_reset</title>
<polygon fill="#cccccc" stroke="black" points="81,-167 27,-167 27,-131 81,-131 81,-167"/>
<text text-anchor="middle" x="54" y="-145.3" font-family="Times,serif" font-size="14.00">reset</text>
</g>
<!-- cluster_TopModule_io_input_0 -->
<g id="node3" class="node"><title>cluster_TopModule_io_input_0</title>
<polygon fill="#cccccc" stroke="black" points="91.5,-113 16.5,-113 16.5,-77 91.5,-77 91.5,-113"/>
<text text-anchor="middle" x="54" y="-91.3" font-family="Times,serif" font-size="14.00">io_input_0</text>
</g>
<!-- cluster_TopModule_Adder_io_input_a -->
<g id="node6" class="node"><title>cluster_TopModule_Adder_io_input_a</title>
<polygon fill="#cccccc" stroke="black" points="203,-180 129,-180 129,-144 203,-144 203,-180"/>
<text text-anchor="middle" x="166" y="-158.3" font-family="Times,serif" font-size="14.00">io_input_a</text>
</g>
<!-- cluster_TopModule_io_input_0&#45;&gt;cluster_TopModule_Adder_io_input_a -->
<g id="edge1" class="edge"><title>cluster_TopModule_io_input_0&#45;&gt;cluster_TopModule_Adder_io_input_a</title>
<path fill="none" stroke="black" d="M84.4023,-113.19C95.5365,-120.053 108.337,-127.913 120,-135 121.898,-136.153 123.842,-137.332 125.807,-138.52"/>
<polygon fill="black" stroke="black" points="124.102,-141.579 134.472,-143.746 127.717,-135.585 124.102,-141.579"/>
</g>
<!-- cluster_TopModule_Multiplier_io_input_a -->
<g id="node12" class="node"><title>cluster_TopModule_Multiplier_io_input_a</title>
<polygon fill="#cccccc" stroke="black" points="315,-190 241,-190 241,-154 315,-154 315,-190"/>
<text text-anchor="middle" x="278" y="-168.3" font-family="Times,serif" font-size="14.00">io_input_a</text>
</g>
<!-- cluster_TopModule_io_input_0&#45;&gt;cluster_TopModule_Multiplier_io_input_a -->
<g id="edge3" class="edge"><title>cluster_TopModule_io_input_0&#45;&gt;cluster_TopModule_Multiplier_io_input_a</title>
<path fill="none" stroke="black" d="M83.8518,-113.01C86.8892,-115.749 89.7014,-118.756 92,-122 116.955,-157.222 85.3555,-189.25 120,-215 152.817,-239.392 172.845,-226.779 212,-215 224.882,-211.125 237.562,-203.774 248.254,-196.231"/>
<polygon fill="black" stroke="black" points="250.427,-198.977 256.368,-190.204 246.253,-193.357 250.427,-198.977"/>
</g>
<!-- cluster_TopModule_io_input_1 -->
<g id="node4" class="node"><title>cluster_TopModule_io_input_1</title>
<polygon fill="#cccccc" stroke="black" points="91.5,-56 16.5,-56 16.5,-20 91.5,-20 91.5,-56"/>
<text text-anchor="middle" x="54" y="-34.3" font-family="Times,serif" font-size="14.00">io_input_1</text>
</g>
<!-- cluster_TopModule_Adder_io_input_b -->
<g id="node7" class="node"><title>cluster_TopModule_Adder_io_input_b</title>
<polygon fill="#cccccc" stroke="black" points="203.5,-126 128.5,-126 128.5,-90 203.5,-90 203.5,-126"/>
<text text-anchor="middle" x="166" y="-104.3" font-family="Times,serif" font-size="14.00">io_input_b</text>
</g>
<!-- cluster_TopModule_io_input_1&#45;&gt;cluster_TopModule_Adder_io_input_b -->
<g id="edge5" class="edge"><title>cluster_TopModule_io_input_1&#45;&gt;cluster_TopModule_Adder_io_input_b</title>
<path fill="none" stroke="black" d="M81.7083,-56.05C93.3869,-63.8434 107.295,-72.9913 120,-81 121.879,-82.1842 123.808,-83.3877 125.76,-84.596"/>
<polygon fill="black" stroke="black" points="124.034,-87.6428 134.389,-89.8804 127.689,-81.6732 124.034,-87.6428"/>
</g>
<!-- cluster_TopModule_Adder_1_io_input_b -->
<g id="node10" class="node"><title>cluster_TopModule_Adder_1_io_input_b</title>
<polygon fill="#cccccc" stroke="black" points="427.5,-114 352.5,-114 352.5,-78 427.5,-78 427.5,-114"/>
<text text-anchor="middle" x="390" y="-92.3" font-family="Times,serif" font-size="14.00">io_input_b</text>
</g>
<!-- cluster_TopModule_io_input_1&#45;&gt;cluster_TopModule_Adder_1_io_input_b -->
<g id="edge6" class="edge"><title>cluster_TopModule_io_input_1&#45;&gt;cluster_TopModule_Adder_1_io_input_b</title>
<path fill="none" stroke="black" d="M91.5005,-25.6855C146.674,-9.48755 252.449,11.897 324,-34 339.08,-43.6734 331.467,-56.1974 344,-69 344.765,-69.7813 345.557,-70.5486 346.372,-71.3016"/>
<polygon fill="black" stroke="black" points="344.246,-74.0841 354.212,-77.6808 348.664,-68.6544 344.246,-74.0841"/>
</g>
<!-- cluster_TopModule_io_out -->
<g id="node5" class="node"><title>cluster_TopModule_io_out</title>
<polygon fill="#e0ffff" stroke="black" points="518,-60 464,-60 464,-24 518,-24 518,-60"/>
<text text-anchor="middle" x="491" y="-38.3" font-family="Times,serif" font-size="14.00">io_out</text>
</g>
<!-- cluster_TopModule_Adder_io_out -->
<g id="node8" class="node"><title>cluster_TopModule_Adder_io_out</title>
<polygon fill="#e0ffff" stroke="black" points="193,-72 139,-72 139,-36 193,-36 193,-72"/>
<text text-anchor="middle" x="166" y="-50.3" font-family="Times,serif" font-size="14.00">io_out</text>
</g>
<!-- cluster_TopModule_Multiplier_io_input_b -->
<g id="node13" class="node"><title>cluster_TopModule_Multiplier_io_input_b</title>
<polygon fill="#cccccc" stroke="black" points="315.5,-136 240.5,-136 240.5,-100 315.5,-100 315.5,-136"/>
<text text-anchor="middle" x="278" y="-114.3" font-family="Times,serif" font-size="14.00">io_input_b</text>
</g>
<!-- cluster_TopModule_Adder_io_out&#45;&gt;cluster_TopModule_Multiplier_io_input_b -->
<g id="edge2" class="edge"><title>cluster_TopModule_Adder_io_out&#45;&gt;cluster_TopModule_Multiplier_io_input_b</title>
<path fill="none" stroke="black" d="M193.068,-69.1671C206.222,-76.8198 222.461,-86.2681 237.14,-94.8086"/>
<polygon fill="black" stroke="black" points="235.633,-97.981 246.036,-99.9848 239.153,-91.9306 235.633,-97.981"/>
</g>
<!-- cluster_TopModule_Adder_1_io_input_a -->
<g id="node9" class="node"><title>cluster_TopModule_Adder_1_io_input_a</title>
<polygon fill="#cccccc" stroke="black" points="427,-168 353,-168 353,-132 427,-132 427,-168"/>
<text text-anchor="middle" x="390" y="-146.3" font-family="Times,serif" font-size="14.00">io_input_a</text>
</g>
<!-- cluster_TopModule_Adder_1_io_out -->
<g id="node11" class="node"><title>cluster_TopModule_Adder_1_io_out</title>
<polygon fill="#e0ffff" stroke="black" points="417,-60 363,-60 363,-24 417,-24 417,-60"/>
<text text-anchor="middle" x="390" y="-38.3" font-family="Times,serif" font-size="14.00">io_out</text>
</g>
<!-- cluster_TopModule_Adder_1_io_out&#45;&gt;cluster_TopModule_io_out -->
<g id="edge4" class="edge"><title>cluster_TopModule_Adder_1_io_out&#45;&gt;cluster_TopModule_io_out</title>
<path fill="none" stroke="black" d="M417.011,-42C428.177,-42 441.419,-42 453.538,-42"/>
<polygon fill="black" stroke="black" points="453.819,-45.5001 463.819,-42 453.819,-38.5001 453.819,-45.5001"/>
</g>
<!-- cluster_TopModule_Multiplier_io_out -->
<g id="node14" class="node"><title>cluster_TopModule_Multiplier_io_out</title>
<polygon fill="#e0ffff" stroke="black" points="305,-82 251,-82 251,-46 305,-46 305,-82"/>
<text text-anchor="middle" x="278" y="-60.3" font-family="Times,serif" font-size="14.00">io_out</text>
</g>
<!-- cluster_TopModule_Multiplier_io_out&#45;&gt;cluster_TopModule_Adder_1_io_input_a -->
<g id="edge7" class="edge"><title>cluster_TopModule_Multiplier_io_out&#45;&gt;cluster_TopModule_Adder_1_io_input_a</title>
<path fill="none" stroke="black" d="M305.25,-76.9251C311.817,-80.8876 318.539,-85.6378 324,-91 335.967,-102.751 332.033,-111.249 344,-123 344.914,-123.898 345.864,-124.778 346.842,-125.641"/>
<polygon fill="black" stroke="black" points="344.768,-128.462 354.793,-131.888 349.092,-122.958 344.768,-128.462"/>
</g>
</g>
</svg>
