<?xml version="1.0" encoding="UTF-8" standalone="no"?>
<?xml-stylesheet href="styles.css" type="text/css"?>
<!DOCTYPE svg PUBLIC "-//W3C//DTD SVG 1.1//EN"
 "http://www.w3.org/Graphics/SVG/1.1/DTD/svg11.dtd">
<!-- Generated by graphviz version 2.30.1 (20180420.1509)
 -->
<!-- Title: Adder Pages: 1 -->
<svg width="462pt" height="153pt"
 viewBox="0.00 0.00 462.00 153.00" xmlns="http://www.w3.org/2000/svg" xmlns:xlink="http://www.w3.org/1999/xlink">
<g id="graph0" class="graph" transform="scale(1 1) rotate(0) translate(4 149)">
<title>Adder</title>
<polygon fill="white" stroke="white" points="-4,5 -4,-149 459,-149 459,5 -4,5"/>
<g id="clust1" class="cluster"><title>cluster_Adder</title>
<polygon fill="#fff8dc" stroke="black" points="8,-8 8,-137 446,-137 446,-8 8,-8"/>
<text text-anchor="middle" x="227" y="-121.8" font-family="Times,serif" font-size="14.00">Adder</text>
</g>
<!-- cluster_Adder_io_input_a -->
<g id="node1" class="node"><title>cluster_Adder_io_input_a</title>
<polygon fill="#cccccc" stroke="black" points="91,-106 17,-106 17,-70 91,-70 91,-106"/>
<text text-anchor="middle" x="54" y="-84.3" font-family="Times,serif" font-size="14.00">io_input_a</text>
</g>
<!-- op_add_4 -->
<g id="node5" class="node"><title>op_add_4</title>
<polygon fill="#d8bfd8" stroke="none" points="136.5,-42.5 136.5,-91.5 213.5,-91.5 213.5,-42.5 136.5,-42.5"/>
<polygon fill="none" stroke="black" points="137,-66 137,-91 157,-91 157,-66 137,-66"/>
<text text-anchor="start" x="142.5" y="-75.3" font-family="Times,serif" font-size="14.00">●</text>
<polygon fill="none" stroke="black" points="157,-42 157,-91 195,-91 195,-42 157,-42"/>
<text text-anchor="start" x="162" y="-63.3" font-family="Times,serif" font-size="14.00"> add </text>
<polygon fill="none" stroke="black" points="195,-42 195,-91 214,-91 214,-42 195,-42"/>
<text text-anchor="start" x="200" y="-63.3" font-family="Times,serif" font-size="14.00">●</text>
<polygon fill="none" stroke="black" points="137,-42 137,-66 157,-66 157,-42 137,-42"/>
<text text-anchor="start" x="142.5" y="-50.8" font-family="Times,serif" font-size="14.00">●</text>
</g>
<!-- cluster_Adder_io_input_a&#45;&gt;op_add_4 -->
<g id="edge4" class="edge"><title>cluster_Adder_io_input_a&#45;&gt;op_add_4:in1</title>
<path fill="none" stroke="black" d="M91.1943,-82.2492C101.994,-80.885 114.088,-79.6873 125.823,-79.2147"/>
<polygon fill="black" stroke="black" points="126.076,-82.7102 136,-79 125.928,-75.7118 126.076,-82.7102"/>
</g>
<!-- cluster_Adder_io_input_b -->
<g id="node2" class="node"><title>cluster_Adder_io_input_b</title>
<polygon fill="#cccccc" stroke="black" points="91.5,-52 16.5,-52 16.5,-16 91.5,-16 91.5,-52"/>
<text text-anchor="middle" x="54" y="-30.3" font-family="Times,serif" font-size="14.00">io_input_b</text>
</g>
<!-- cluster_Adder_io_input_b&#45;&gt;op_add_4 -->
<g id="edge3" class="edge"><title>cluster_Adder_io_input_b&#45;&gt;op_add_4:in2</title>
<path fill="none" stroke="black" d="M91.6304,-47.005C102.254,-49.9595 114.148,-52.5282 125.828,-53.5405"/>
<polygon fill="black" stroke="black" points="125.852,-57.0451 136,-54 126.168,-50.0522 125.852,-57.0451"/>
</g>
<!-- cluster_Adder_io_out -->
<g id="node3" class="node"><title>cluster_Adder_io_out</title>
<polygon fill="#e0ffff" stroke="black" points="438,-71 384,-71 384,-35 438,-35 438,-71"/>
<text text-anchor="middle" x="411" y="-49.3" font-family="Times,serif" font-size="14.00">io_out</text>
</g>
<!-- op_tail_3 -->
<g id="node4" class="node"><title>op_tail_3</title>
<polygon fill="#d8bfd8" stroke="none" points="266,-29.5 266,-78.5 340,-78.5 340,-29.5 266,-29.5"/>
<polygon fill="none" stroke="black" points="266,-53 266,-78 286,-78 286,-53 266,-53"/>
<text text-anchor="start" x="271.5" y="-62.3" font-family="Times,serif" font-size="14.00">●</text>
<polygon fill="none" stroke="black" points="286,-29 286,-78 321,-78 321,-29 286,-29"/>
<text text-anchor="start" x="291" y="-50.3" font-family="Times,serif" font-size="14.00"> tail </text>
<polygon fill="none" stroke="black" points="321,-29 321,-78 340,-78 340,-29 321,-29"/>
<text text-anchor="start" x="326" y="-50.3" font-family="Times,serif" font-size="14.00">●</text>
<polygon fill="none" stroke="black" points="266,-29 266,-53 286,-53 286,-29 266,-29"/>
<text text-anchor="start" x="272.5" y="-37.8" font-family="Times,serif" font-size="14.00">1</text>
</g>
<!-- op_tail_3&#45;&gt;cluster_Adder_io_out -->
<g id="edge1" class="edge"><title>op_tail_3:out&#45;&gt;cluster_Adder_io_out</title>
<path fill="none" stroke="black" d="M341,-53C351.602,-53 363.119,-53 373.653,-53"/>
<polygon fill="black" stroke="black" points="373.788,-56.5001 383.788,-53 373.788,-49.5001 373.788,-56.5001"/>
</g>
<!-- op_add_4&#45;&gt;op_tail_3 -->
<g id="edge2" class="edge"><title>op_add_4:out&#45;&gt;op_tail_3:in1</title>
<path fill="none" stroke="black" d="M215,-66C233.403,-66 240.376,-66 254.849,-66"/>
<polygon fill="black" stroke="black" points="255,-69.5001 265,-66 255,-62.5001 255,-69.5001"/>
</g>
</g>
</svg>
