<?xml version="1.0" encoding="UTF-8" standalone="no"?>
<?xml-stylesheet href="styles.css" type="text/css"?>
<!DOCTYPE svg PUBLIC "-//W3C//DTD SVG 1.1//EN"
 "http://www.w3.org/Graphics/SVG/1.1/DTD/svg11.dtd">
<!-- Generated by graphviz version 2.30.1 (20180420.1509)
 -->
<!-- Title: TopModule_hierarchy Pages: 1 -->
<svg width="236pt" height="152pt"
 viewBox="0.00 0.00 236.00 152.00" xmlns="http://www.w3.org/2000/svg" xmlns:xlink="http://www.w3.org/1999/xlink">
<g id="graph0" class="graph" transform="scale(1 1) rotate(0) translate(4 148)">
<title>TopModule_hierarchy</title>
<polygon fill="white" stroke="white" points="-4,5 -4,-148 233,-148 233,5 -4,5"/>
<!-- module_1 -->
<g id="node1" class="node"><title>module_1</title>
<g id="a_node1"><a xlink:href="TopModule.dot.svg" xlink:title="&lt;TABLE&gt;">
<polygon fill="#ffdead" stroke="none" points="8,-108 8,-133 92,-133 92,-108 8,-108"/>
<polygon fill="none" stroke="black" points="8,-108 8,-133 92,-133 92,-108 8,-108"/>
<text text-anchor="start" x="13.5" y="-117.3" font-family="Times,serif" font-size="14.00"> TopModule </text>
<polygon fill="#fff8dc" stroke="none" points="8,-84 8,-108 92,-108 92,-84 8,-84"/>
<polygon fill="none" stroke="black" points="8,-84 8,-108 92,-108 92,-84 8,-84"/>
<text text-anchor="start" x="33" y="-92.8" font-family="Times,serif" font-size="14.00">Adder</text>
<polygon fill="#fff8dc" stroke="none" points="8,-60 8,-84 92,-84 92,-60 8,-60"/>
<polygon fill="none" stroke="black" points="8,-60 8,-84 92,-84 92,-60 8,-60"/>
<text text-anchor="start" x="26" y="-68.8" font-family="Times,serif" font-size="14.00">Adder_1</text>
<polygon fill="#fff8dc" stroke="none" points="8,-36 8,-60 92,-60 92,-36 8,-36"/>
<polygon fill="none" stroke="black" points="8,-36 8,-60 92,-60 92,-36 8,-36"/>
<text text-anchor="start" x="22" y="-44.8" font-family="Times,serif" font-size="14.00">Multiplier</text>
</a>
</g>
</g>
<!-- module_2 -->
<g id="node2" class="node"><title>module_2</title>
<g id="a_node2"><a xlink:href="Adder.dot.svg" xlink:title="&lt;TABLE&gt;">
<polygon fill="#ffdead" stroke="none" points="156,-113 156,-138 209,-138 209,-113 156,-113"/>
<polygon fill="none" stroke="black" points="156,-113 156,-138 209,-138 209,-113 156,-113"/>
<text text-anchor="start" x="161.5" y="-122.3" font-family="Times,serif" font-size="14.00"> Adder </text>
</a>
</g>
</g>
<!-- module_1&#45;&gt;module_2 -->
<g id="edge1" class="edge"><title>module_1:module_2&#45;&gt;module_2</title>
<path fill="none" stroke="black" d="M93,-96C108.082,-96 123.877,-99.9965 137.857,-105.072"/>
<polygon fill="black" stroke="black" points="136.625,-108.349 147.213,-108.723 139.169,-101.827 136.625,-108.349"/>
</g>
<!-- module_3 -->
<g id="node3" class="node"><title>module_3</title>
<g id="a_node3"><a xlink:href="Adder.dot.svg" xlink:title="&lt;TABLE&gt;">
<polygon fill="#ffdead" stroke="none" points="156,-59 156,-84 209,-84 209,-59 156,-59"/>
<polygon fill="none" stroke="black" points="156,-59 156,-84 209,-84 209,-59 156,-59"/>
<text text-anchor="start" x="161.5" y="-68.3" font-family="Times,serif" font-size="14.00"> Adder </text>
</a>
</g>
</g>
<!-- module_1&#45;&gt;module_3 -->
<g id="edge2" class="edge"><title>module_1:module_3&#45;&gt;module_3</title>
<path fill="none" stroke="black" d="M93,-72C107.244,-72 122.785,-72 136.789,-72"/>
<polygon fill="black" stroke="black" points="137.152,-75.5001 147.152,-72 137.152,-68.5001 137.152,-75.5001"/>
</g>
<!-- module_4 -->
<g id="node4" class="node"><title>module_4</title>
<g id="a_node4"><a xlink:href="Multiplier.dot.svg" xlink:title="&lt;TABLE&gt;">
<polygon fill="#ffdead" stroke="none" points="145,-5 145,-30 220,-30 220,-5 145,-5"/>
<polygon fill="none" stroke="black" points="145,-5 145,-30 220,-30 220,-5 145,-5"/>
<text text-anchor="start" x="150.5" y="-14.3" font-family="Times,serif" font-size="14.00"> Multiplier </text>
</a>
</g>
</g>
<!-- module_1&#45;&gt;module_4 -->
<g id="edge3" class="edge"><title>module_1:module_4&#45;&gt;module_4</title>
<path fill="none" stroke="black" d="M93,-48C107.287,-48 122.215,-44.4134 135.633,-39.7205"/>
<polygon fill="black" stroke="black" points="136.986,-42.9506 145.105,-36.1432 134.513,-36.402 136.986,-42.9506"/>
</g>
</g>
</svg>
